<?xml version="1.0" encoding="utf-8"?>
<!-- Generator: Adobe Illustrator 21.0.0, SVG Export Plug-In . SVG Version: 6.00 Build 0)  -->
<svg version="1.1" id="Capa_1" xmlns="http://www.w3.org/2000/svg" xmlns:xlink="http://www.w3.org/1999/xlink" x="0px" y="0px"
	 viewBox="0 0 400 293.3" style="enable-background:new 0 0 400 293.3;" xml:space="preserve">
<g>
	<path d="M371.9,0H28.1C12.6,0,0,12.6,0,28.1v237.1c0,15.5,12.6,28.1,28.1,28.1h343.8c15.5,0,28.1-12.6,28.1-28.1V28.1
		C400,12.6,387.4,0,371.9,0z M386.7,265.2c0,8.2-6.6,14.8-14.8,14.8H28.1c-8.2,0-14.8-6.6-14.8-14.8V28.1c0-8.2,6.6-14.8,14.8-14.8
		h343.8c8.2,0,14.8,6.6,14.8,14.8V265.2z"/>
	<path d="M150.9,188.3l-24.3-12.4v-2.6c10.9-5.9,18.5-15.7,22.7-29.1c6.5-3.4,10.6-10.1,10.6-17.6V120c0-6.2-2.9-11.9-7.7-15.7
		c-4.2-25.2-21.7-38-52.3-38c-1.4,0-2.9,0.1-4.2,0.2c-8,0.6-15.8-1.1-21.5-4.9c-2.7-1.8-4.8-3.6-6.1-5.3c-3-3.8-9.1-4-12.3-0.4
		c-1.5,1.7-2.2,4-2,6.2c0.3,2.5,0.7,5.4,1.3,8.6c1.3,6.5,1.3,6.5-0.5,10.4c-0.7,1.5-1.5,3.3-2.5,5.7c-2.2,5.4-3.8,11.3-4.7,17.6
		c-4.7,3.8-7.6,9.5-7.6,15.6v6.7c0,7.5,4.1,14.2,10.6,17.6c4.3,13.4,11.9,23.2,22.7,29.1v2.5l-25.1,12.4c-9.2,5-14.9,14.6-14.9,25.1
		v8.8c0,5.4,0,17.9,66.7,17.9s66.7-12.5,66.7-17.9v-8.3C166.7,202.9,160.6,193.2,150.9,188.3z"/>
	<path d="M200,100h66.7c3.7,0,6.7-3,6.7-6.7c0-3.7-3-6.7-6.7-6.7H200c-3.7,0-6.7,3-6.7,6.7C193.3,97,196.3,100,200,100z"/>
	<path d="M293.3,100h6.7c3.7,0,6.7-3,6.7-6.7c0-3.7-3-6.7-6.7-6.7h-6.7c-3.7,0-6.7,3-6.7,6.7C286.7,97,289.6,100,293.3,100z"/>
	<path d="M206.7,200H200c-3.7,0-6.7,3-6.7,6.7s3,6.7,6.7,6.7h6.7c3.7,0,6.7-3,6.7-6.7S210.4,200,206.7,200z"/>
	<path d="M246.7,200h-13.3c-3.7,0-6.7,3-6.7,6.7s3,6.7,6.7,6.7h13.3c3.7,0,6.7-3,6.7-6.7S250.4,200,246.7,200z"/>
	<path d="M280,200h-6.7c-3.7,0-6.7,3-6.7,6.7s3,6.7,6.7,6.7h6.7c3.7,0,6.7-3,6.7-6.7S283.7,200,280,200z"/>
	<path d="M320,200h-13.3c-3.7,0-6.7,3-6.7,6.7s3,6.7,6.7,6.7H320c3.7,0,6.7-3,6.7-6.7S323.7,200,320,200z"/>
	<path d="M341.9,201.9c-1.2,1.3-1.9,3-1.9,4.7s0.7,3.5,1.9,4.7c1.3,1.2,3,1.9,4.7,1.9c1.7,0,3.5-0.7,4.7-1.9c1.2-1.3,1.9-3,1.9-4.7
		s-0.7-3.5-1.9-4.7C348.9,199.5,344.4,199.5,341.9,201.9z"/>
	<path d="M346.7,126.7H200c-3.7,0-6.7,3-6.7,6.7s3,6.7,6.7,6.7h146.7c3.7,0,6.7-3,6.7-6.7S350.4,126.7,346.7,126.7z"/>
	<path d="M346.7,166.7H200c-3.7,0-6.7,3-6.7,6.7s3,6.7,6.7,6.7h146.7c3.7,0,6.7-3,6.7-6.7S350.4,166.7,346.7,166.7z"/>
</g>
</svg>
