<?xml version="1.0" encoding="utf-8"?>
<!-- Generator: Adobe Illustrator 21.0.0, SVG Export Plug-In . SVG Version: 6.00 Build 0)  -->
<svg version="1.1" id="Layer_1" xmlns="http://www.w3.org/2000/svg" xmlns:xlink="http://www.w3.org/1999/xlink" x="0px" y="0px"
	 viewBox="0 0 400.2 293.3" style="enable-background:new 0 0 400.2 293.3;" xml:space="preserve">
<g>
	<g>
		<path d="M370.5,0H29.8C13.6,0,0,12.1,0,28.3V265c0,15.4,12.8,28.3,29.8,28.3h340.6c16.2,0,29.8-12.9,29.8-29.1V28.3
			C400.3,13,387.5,0,370.5,0z M384.1,264.1c0,7.3-6,12.9-13.6,12.9H29.8c-7.7,0-13.6-5.7-13.6-12.9V28.3c0-7.3,6-12.9,13.6-12.9
			h340.6c7.7,0,13.6,5.7,13.6,12.9L384.1,264.1L384.1,264.1z"/>
		<path d="M136.3,51.9H47.7v84.3h88.6V51.9z M120.1,120.7H64.8V68.1h55.3V120.7z"/>
		<rect x="56.2" y="176.6" width="176.3" height="16.2"/>
		<rect x="56.2" y="227.6" width="176.3" height="16.2"/>
	</g>
</g>
</svg>
